<svg id="logo" xmlns="http://www.w3.org/2000/svg" viewBox="0 0 416 420" width="516" height="520"
     preserveAspectRatio="xMidYMid meet" style="width: 100%; height: 100%; transform: translate3d(0px, 0px, 0px);">
<defs>
    <clipPath id="__lottie_element_16">
        <rect width="416" height="420" x="0" y="0"></rect>
    </clipPath>
</defs>
<g clip-path="url(#__lottie_element_16)">
    <g transform="matrix(1,0,0,1,92,100.92915344238281)" opacity="1" style="display: block;">
        <g opacity="1" transform="matrix(1,0,0,1,115.75800323486328,115.75800323486328)">
            <path fill="rgb(42,33,158)" fill-opacity="1"
                  d=" M115.75800323486328,0 C115.75800323486328,-63.930999755859375 63.930999755859375,-115.75800323486328 -0.0010000000474974513,-115.75800323486328 C-63.930999755859375,-115.75800323486328 -115.75800323486328,-63.930999755859375 -115.75800323486328,0 C-115.75800323486328,63.93199920654297 -63.930999755859375,115.75800323486328 -0.0010000000474974513,115.75800323486328 C21.655000686645508,115.75800323486328 41.91899871826172,109.80500030517578 59.25299835205078,99.45600128173828 C59.25299835205078,99.45600128173828 62.099998474121094,98.62200164794922 62.099998474121094,98.62200164794922 C62.099998474121094,98.62200164794922 97.45600128173828,108.97699737548828 97.45600128173828,108.97699737548828 C97.45600128173828,108.97699737548828 87.6760025024414,75.58399963378906 87.6760025024414,75.58399963378906 C105.17400360107422,55.303001403808594 115.75800323486328,28.888999938964844 115.75800323486328,0z"></path>
        </g>
        <g opacity="1" transform="matrix(1,0,0,1,115.75800323486328,115.75800323486328)">
            <path fill="rgb(255,255,255)" fill-opacity="1"
                  d=" M45.50299835205078,-18.031999588012695 C45.50299835205078,-18.031999588012695 18.0310001373291,-18.031999588012695 18.0310001373291,-18.031999588012695 C18.0310001373291,-18.031999588012695 18.0310001373291,-45.50400161743164 18.0310001373291,-45.50400161743164 C18.0310001373291,-47.71699905395508 16.236000061035156,-49.5099983215332 14.02299976348877,-49.5099983215332 C14.02299976348877,-49.5099983215332 -14.02299976348877,-49.5099983215332 -14.02299976348877,-49.5099983215332 C-16.23699951171875,-49.5099983215332 -18.031999588012695,-47.71699905395508 -18.031999588012695,-45.50400161743164 C-18.031999588012695,-45.50400161743164 -18.031999588012695,-18.031999588012695 -18.031999588012695,-18.031999588012695 C-18.031999588012695,-18.031999588012695 -45.50299835205078,-18.031999588012695 -45.50299835205078,-18.031999588012695 C-47.715999603271484,-18.031999588012695 -49.5099983215332,-16.238000869750977 -49.5099983215332,-14.024999618530273 C-49.5099983215332,-14.024999618530273 -49.5099983215332,14.02400016784668 -49.5099983215332,14.02400016784668 C-49.5099983215332,16.23699951171875 -47.715999603271484,18.0310001373291 -45.50299835205078,18.0310001373291 C-45.50299835205078,18.0310001373291 -18.031999588012695,18.0310001373291 -18.031999588012695,18.0310001373291 C-18.031999588012695,18.0310001373291 -18.031999588012695,45.50299835205078 -18.031999588012695,45.50299835205078 C-18.031999588012695,47.71699905395508 -16.23699951171875,49.5099983215332 -14.02299976348877,49.5099983215332 C-14.02299976348877,49.5099983215332 14.02299976348877,49.5099983215332 14.02299976348877,49.5099983215332 C16.236000061035156,49.5099983215332 18.0310001373291,47.71699905395508 18.0310001373291,45.50299835205078 C18.0310001373291,45.50299835205078 18.0310001373291,18.0310001373291 18.0310001373291,18.0310001373291 C18.0310001373291,18.0310001373291 45.50299835205078,18.0310001373291 45.50299835205078,18.0310001373291 C47.71699905395508,18.0310001373291 49.5099983215332,16.23699951171875 49.5099983215332,14.02400016784668 C49.5099983215332,14.02400016784668 49.5099983215332,-14.024999618530273 49.5099983215332,-14.024999618530273 C49.5099983215332,-16.238000869750977 47.71699905395508,-18.031999588012695 45.50299835205078,-18.031999588012695z"></path>
        </g>
    </g>
    <g transform="matrix(1.7100000381469727,0,0,1.7100000381469727,279.45001220703125,181.89288330078125)"
       opacity="0.024111525637528077" style="display: none;">
        <g opacity="1"
           transform="matrix(0.9999999403953552,-0.00031415926059708,0.00031415926059708,0.9999999403953552,-0.0006866455078125,0.000469207763671875)">
            <g opacity="1" transform="matrix(0,1,-1,0,-155.47500610351562,32.542999267578125)">
                <path stroke-linecap="round" stroke-linejoin="miter" fill-opacity="0" stroke-miterlimit="4"
                      stroke="rgb(42,33,158)" stroke-opacity="1" stroke-width="3"
                      d=" M-94,-55.5 C-94,-55.5 -94,-67 -94,-67"></path>
            </g>
            <path stroke-linecap="round" stroke-linejoin="miter" fill-opacity="0" stroke-miterlimit="4"
                  stroke="rgb(42,33,158)" stroke-opacity="1" stroke-width="3"
                  d=" M-94,-55.5 C-94,-55.5 -94,-67 -94,-67"></path>
        </g>
    </g>
    <g style="display: none;" transform="matrix(1.7000000476837158,0,0,1.7000000476837158,305.5,192.30416870117188)"
       opacity="0.028946418567442577">
        <g opacity="1"
           transform="matrix(0.9999999403953552,-0.00031415926059708,0.00031415926059708,0.9999999403953552,-0.0006866455078125,0.000469207763671875)">
            <g opacity="1" transform="matrix(0,1,-1,0,-155.47500610351562,32.542999267578125)">
                <path stroke-linecap="round" stroke-linejoin="miter" fill-opacity="0" stroke-miterlimit="4"
                      stroke="rgb(42,33,158)" stroke-opacity="1" stroke-width="3"
                      d=" M-94,-55.5 C-94,-55.5 -94,-67 -94,-67"></path>
            </g>
            <path stroke-linecap="round" stroke-linejoin="miter" fill-opacity="0" stroke-miterlimit="4"
                  stroke="rgb(42,33,158)" stroke-opacity="1" stroke-width="3"
                  d=" M-94,-55.5 C-94,-55.5 -94,-67 -94,-67"></path>
        </g>
    </g>
</g>
</svg>